<?xml version="1.0" encoding="utf-8"?>
<!-- Generator: Adobe Illustrator 17.0.0, SVG Export Plug-In . SVG Version: 6.00 Build 0)  -->
<!DOCTYPE svg PUBLIC "-//W3C//DTD SVG 1.1//EN" "http://www.w3.org/Graphics/SVG/1.1/DTD/svg11.dtd">
<svg version="1.1" id="Layer_1" xmlns="http://www.w3.org/2000/svg" xmlns:xlink="http://www.w3.org/1999/xlink" x="0px" y="0px"
	 width="789px" height="149.137px" viewBox="0 0 789 149.137" enable-background="new 0 0 789 149.137" xml:space="preserve">
<g>
	<g>
		<defs>
			<path id="SVGID_1_" d="M29.454,73.653l45.378-45.379l45.382,45.379l-45.382,45.378L29.454,73.653z M81.985,143.358l62.549-62.547
				c3.933-3.937,3.94-10.376,0-14.309L81.988,3.951c-3.938-3.937-10.374-3.933-14.312,0L5.13,66.502
				C1.196,70.431,1.196,76.87,5.134,80.811l62.548,62.543C71.619,147.287,78.055,147.287,81.985,143.358"/>
		</defs>
		<use xlink:href="#SVGID_1_"  overflow="visible" fill="#72EBC7"/>
		<clipPath id="SVGID_2_">
			<use xlink:href="#SVGID_1_"  overflow="visible"/>
		</clipPath>
		<rect x="74.832" y="-14.628" clip-path="url(#SVGID_2_)" fill="#51A589" width="83.679" height="177.836"/>
	</g>
	<g>
		<defs>
			<path id="SVGID_3_" d="M85.904,73.653l45.381-45.379l45.375,45.379l-45.375,45.374L85.904,73.653z M138.435,143.354
				l62.545-62.543c3.937-3.937,3.937-10.372,0-14.305L138.434,3.951c-3.933-3.933-10.369-3.925-14.306,0.004L61.583,66.506
				c-3.933,3.933-3.938,10.368-0.003,14.305l62.548,62.543C128.061,147.287,134.504,147.287,138.435,143.354"/>
		</defs>
		<use xlink:href="#SVGID_3_"  overflow="visible" fill="#72EBC7"/>
		<clipPath id="SVGID_4_">
			<use xlink:href="#SVGID_3_"  overflow="visible"/>
		</clipPath>
		<rect x="131.28" y="-9.888" clip-path="url(#SVGID_4_)" fill="#51A589" width="86.1" height="170.085"/>
	</g>
	<g>
		<g>
			<path fill="#FFFFFF" d="M276.34,105.71h8.1v15.852h-37.258V105.71h7.868V56.068h-7.868V40.449h26.845l0.926,6.132
				c2.468-2.853,5.418-4.82,8.853-5.902c3.431-1.08,6.769-1.543,10.009-1.389c8.484,0.619,14.964,3.454,19.439,8.504
				c4.473,5.054,6.711,12.132,6.711,21.235c0,4.396-0.656,8.408-1.968,12.033c-1.312,3.629-3.181,6.768-5.612,9.43
				c-2.429,2.662-5.342,4.727-8.736,6.192c-3.395,1.465-7.174,2.197-11.339,2.197c-3.703,0-6.905-0.539-9.603-1.617
				c-2.701-1.082-4.822-2.584-6.365-4.513V105.71z M287.333,81.642c3.24,0,5.977-1.119,8.215-3.357
				c2.237-2.238,3.356-5.323,3.356-9.256c0-4.011-1.119-7.117-3.356-9.316c-2.238-2.197-4.975-3.297-8.215-3.297
				c-1.775,0-3.376,0.348-4.802,1.041c-1.429,0.695-2.624,1.582-3.587,2.662c-0.965,1.082-1.717,2.355-2.256,3.818
				c-0.541,1.467-0.81,2.933-0.81,4.398c0,1.775,0.25,3.472,0.752,5.091c0.501,1.621,1.233,3.029,2.199,4.222
				c0.964,1.197,2.159,2.164,3.587,2.892C283.841,81.276,285.482,81.642,287.333,81.642z"/>
			<path fill="#FFFFFF" d="M373.305,40.449h27.075v15.736h-7.751v25.918h7.751v15.736H373.65l-0.926-6.365
				c-2.468,2.855-5.418,4.822-8.849,5.904c-3.435,1.078-6.768,1.543-10.01,1.386c-4.166-0.23-7.888-1.115-11.166-2.662
				c-3.28-1.539-6.037-3.625-8.273-6.245c-2.238-2.625-3.934-5.71-5.091-9.257c-1.157-3.55-1.735-7.406-1.735-11.572
				c0-4.242,0.674-8.177,2.024-11.803c1.349-3.625,3.24-6.77,5.67-9.432c2.429-2.66,5.361-4.762,8.794-6.305
				c3.431-1.543,7.232-2.314,11.398-2.314c4.163,0,7.615,0.636,10.355,1.909c2.736,1.273,4.879,3.106,6.422,5.496L373.305,40.449z
				 M360.345,56.415c-3.703,0-6.537,1.234-8.504,3.703c-1.968,2.471-2.951,5.439-2.951,8.911c0,4.011,1.098,7.096,3.296,9.256
				c2.201,2.16,4.92,3.242,8.158,3.242c1.773,0,3.394-0.329,4.859-0.987c1.465-0.654,2.719-1.559,3.76-2.715
				c1.045-1.16,1.835-2.49,2.374-3.994c0.539-1.504,0.81-3.104,0.81-4.801c0-3.857-1.024-6.924-3.065-9.199
				C367.035,57.555,364.126,56.415,360.345,56.415z"/>
			<path fill="#FFFFFF" d="M409.754,56.068V40.449h26.729l1.504,6.362c3.546-5.091,8.485-7.636,14.811-7.636
				c3.24,0,6.114,0.541,8.621,1.619c2.505,1.082,4.645,2.586,6.42,4.513l-8.331,16.314c-1.388-1.078-2.95-1.868-4.686-2.372
				c-1.734-0.5-3.452-0.751-5.149-0.751c-3.781,0.076-6.519,1.119-8.216,3.123c-1.697,2.008-2.545,4.824-2.545,8.448v12.033h8.099
				v15.736h-37.257V82.103h7.868V56.068H409.754z"/>
			<path fill="#FFFFFF" d="M513.659,40.449h27.075v15.736h-7.753v25.918h7.753v15.736h-26.729l-0.926-6.365
				c-2.468,2.855-5.42,4.822-8.852,5.904c-3.433,1.078-6.768,1.543-10.008,1.386c-4.166-0.23-7.889-1.115-11.168-2.662
				c-3.279-1.539-6.035-3.625-8.271-6.245c-2.24-2.625-3.935-5.71-5.091-9.257c-1.158-3.55-1.736-7.406-1.736-11.572
				c0-4.242,0.675-8.177,2.024-11.803c1.349-3.625,3.24-6.77,5.669-9.432c2.431-2.66,5.361-4.762,8.794-6.305
				c3.433-1.543,7.233-2.314,11.398-2.314s7.617,0.636,10.357,1.909c2.736,1.273,4.877,3.106,6.42,5.496L513.659,40.449z
				 M500.7,56.415c-3.703,0-6.539,1.234-8.506,3.703c-1.967,2.471-2.95,5.439-2.95,8.911c0,4.011,1.098,7.096,3.297,9.256
				c2.199,2.16,4.918,3.242,8.158,3.242c1.773,0,3.392-0.329,4.859-0.987c1.465-0.654,2.719-1.559,3.76-2.715
				c1.043-1.16,1.833-2.49,2.372-3.994c0.539-1.504,0.81-3.104,0.81-4.801c0-3.857-1.022-6.924-3.065-9.199
				C507.389,57.555,504.479,56.415,500.7,56.415z"/>
			<path fill="#FFFFFF" d="M591.646,32.463h-7.868V16.842h29.044v65.261h7.868v15.736h-26.845l-0.81-6.249
				c-2.468,2.777-5.42,4.707-8.851,5.789c-3.433,1.078-6.77,1.543-10.01,1.386c-8.485-0.461-14.965-3.238-19.439-8.331
				c-4.474-5.089-6.71-12.186-6.71-21.289c0-4.32,0.654-8.313,1.967-11.976c1.31-3.664,3.182-6.807,5.612-9.432
				c2.429-2.621,5.361-4.665,8.794-6.132c3.431-1.465,7.233-2.199,11.398-2.199c3.625,0,6.786,0.52,9.487,1.563
				c2.701,1.041,4.822,2.526,6.365,4.454V32.463z M580.653,56.531c-3.24,0-5.959,1.101-8.156,3.3
				c-2.199,2.197-3.297,5.303-3.297,9.314c0,4.011,1.098,7.116,3.297,9.313c2.197,2.201,4.916,3.3,8.156,3.3
				c1.775,0,3.374-0.35,4.803-1.041c1.426-0.695,2.621-1.6,3.587-2.719c0.963-1.119,1.716-2.391,2.255-3.819
				c0.539-1.428,0.81-2.911,0.81-4.456c0-1.695-0.251-3.355-0.751-4.976c-0.504-1.619-1.236-3.026-2.199-4.223
				c-0.967-1.195-2.162-2.158-3.588-2.892C584.144,56.899,582.505,56.531,580.653,56.531z"/>
			<path fill="#FFFFFF" d="M658.064,39.406c4.242,0,8.331,0.58,12.266,1.736c3.933,1.158,7.405,2.97,10.413,5.439
				c3.009,2.468,5.418,5.593,7.233,9.372c1.812,3.781,2.719,8.255,2.719,13.422c0,5.248-0.946,9.741-2.835,13.481
				c-1.892,3.744-4.379,6.825-7.465,9.257c-3.086,2.431-6.576,4.225-10.47,5.381c-3.896,1.156-7.85,1.736-11.861,1.736
				c-4.089,0-8.099-0.58-12.034-1.736c-3.933-1.156-7.426-2.95-10.472-5.381c-3.046-2.431-5.494-5.513-7.346-9.257
				c-1.851-3.74-2.777-8.233-2.777-13.481c0-5.322,0.926-9.874,2.777-13.653c1.851-3.779,4.299-6.885,7.346-9.316
				c3.047-2.429,6.519-4.203,10.415-5.322C649.867,39.967,653.899,39.406,658.064,39.406z M658.064,81.757
				c3.625,0,6.498-1.197,8.621-3.588c2.121-2.391,3.182-5.323,3.182-8.795c0-1.619-0.272-3.182-0.81-4.686
				c-0.541-1.504-1.312-2.835-2.314-3.993c-1.004-1.156-2.238-2.082-3.703-2.777c-1.467-0.693-3.125-1.041-4.976-1.041
				s-3.511,0.348-4.976,1.041c-1.465,0.695-2.701,1.621-3.703,2.777c-1.002,1.158-1.775,2.489-2.314,3.993
				c-0.539,1.504-0.808,3.067-0.808,4.686c0,3.318,1.02,6.21,3.065,8.68C651.371,80.523,654.284,81.757,658.064,81.757z"/>
			<path fill="#FFFFFF" d="M724.135,77.359l-4.513,5.669l4.628,0.465v14.346h-29.274V82.103h6.362l12.729-15.62l-9.604-10.415
				h-8.561V40.331h30.547v10.53c1.31,1.389,2.621,2.816,3.933,4.281c1.31,1.467,2.623,2.894,3.935,4.283l4.048-4.861l-4.628-0.578
				V40.331h28.813v15.736h-6.712l-11.571,14.35c1.851,2.006,3.664,3.972,5.439,5.901c1.773,1.93,3.546,3.859,5.322,5.784h8.679
				v15.736h-30.895V86.846L724.135,77.359z"/>
		</g>
	</g>
</g>
</svg>
